<svg width="185" height="185" viewBox="0 0 185 185" fill="none" xmlns="http://www.w3.org/2000/svg">
<path d="M106.41 137.21C106.31 137.21 106.2 137.21 106.1 137.21C103.86 137.08 101.95 135.53 101.36 133.36L84.41 71.2202L75.73 100.2C75.07 102.42 73.03 103.93 70.71 103.93H38.21C35.32 103.93 32.97 101.59 32.97 98.6902C32.97 95.7902 35.31 93.4502 38.21 93.4502H66.81L79.62 50.6602C80.29 48.4402 82.32 46.9302 84.64 46.9302C84.66 46.9302 84.68 46.9302 84.71 46.9302C87.05 46.9602 89.08 48.5302 89.7 50.7902L107.38 115.63L115.04 96.7202C115.84 94.7402 117.76 93.4502 119.89 93.4502H145.93C148.82 93.4502 151.17 95.7902 151.17 98.6902C151.17 101.59 148.83 103.93 145.93 103.93H123.42L111.26 133.94C110.45 135.92 108.53 137.21 106.41 137.21Z" fill="white"/>
<path d="M92.07 184.15C41.3 184.15 0 142.84 0 92.07C0 41.3 41.3 0 92.07 0C142.84 0 184.15 41.3 184.15 92.07C184.15 142.84 142.84 184.14 92.07 184.14V184.15ZM92.07 10.47C47.08 10.47 10.47 47.08 10.47 92.07C10.47 137.06 47.07 173.67 92.07 173.67C137.07 173.67 173.67 137.07 173.67 92.07C173.67 47.07 137.07 10.47 92.07 10.47Z" fill="white"/>
</svg>
