<!--
 * Copyright (c) 2023, WSO2 LLC. (https://www.wso2.com). All Rights Reserved.
 *
 * WSO2 LLC. licenses this file to you under the Apache License,
 * Version 2.0 (the "License"); you may not use this file except
 * in compliance with the License.
 * You may obtain a copy of the License at
 *
 *     http://www.apache.org/licenses/LICENSE-2.0
 *
 * Unless required by applicable law or agreed to in writing,
 * software distributed under the License is distributed on an
 * "AS IS" BASIS, WITHOUT WARRANTIES OR CONDITIONS OF ANY
 * KIND, either express or implied. See the License for the
 * specific language governing permissions and limitations
 * under the License.
-->

<svg width="16" height="16" viewBox="0 0 16 16" fill="none" xmlns="http://www.w3.org/2000/svg">
    <path fill-rule="evenodd" clip-rule="evenodd" d="M8.5 0.5C8.5 0.223858 8.27614 0 8 0C7.72386 0 7.5 0.223858 7.5 0.5V1.5C7.5 1.77614 7.72386 2 8 2C8.27614 2 8.5 1.77614 8.5 1.5V0.5ZM8.5 14.5C8.5 14.2239 8.27614 14 8 14C7.72386 14 7.5 14.2239 7.5 14.5V15.5C7.5 15.7761 7.72386 16 8 16C8.27614 16 8.5 15.7761 8.5 15.5V14.5ZM1.5 8.5C1.77614 8.5 2 8.27614 2 8C2 7.72386 1.77614 7.5 1.5 7.5H0.5C0.223858 7.5 0 7.72386 0 8C0 8.27614 0.223858 8.5 0.5 8.5H1.5ZM15.5 8.5C15.7761 8.5 16 8.27614 16 8C16 7.72386 15.7761 7.5 15.5 7.5H14.5C14.2239 7.5 14 7.72386 14 8C14 8.27614 14.2239 8.5 14.5 8.5H15.5ZM12.4464 2.83936C12.2512 3.03463 12.2512 3.35121 12.4464 3.54647C12.6417 3.74173 12.9583 3.74173 13.1535 3.54647L13.8606 2.83936C14.0559 2.6441 14.0559 2.32752 13.8606 2.13226C13.6654 1.937 13.3488 1.937 13.1535 2.13226L12.4464 2.83936ZM2.14645 2.86065C1.95118 2.66539 1.95118 2.3488 2.14645 2.15354C2.34171 1.95828 2.65829 1.95828 2.85355 2.15354L3.56066 2.86065C3.75592 3.05591 3.75592 3.37249 3.56066 3.56775C3.3654 3.76302 3.04882 3.76302 2.85355 3.56775L2.14645 2.86065ZM2.14645 13.1394C1.95118 13.3346 1.95118 13.6512 2.14645 13.8465C2.34171 14.0417 2.65829 14.0417 2.85355 13.8465L3.56066 13.1394C3.75592 12.9441 3.75592 12.6275 3.56066 12.4322C3.3654 12.237 3.04882 12.237 2.85355 12.4322L2.14645 13.1394ZM12.4464 13.1606C12.2512 12.9654 12.2512 12.6488 12.4464 12.4535C12.6417 12.2583 12.9583 12.2583 13.1535 12.4535L13.8606 13.1606C14.0559 13.3559 14.0559 13.6725 13.8606 13.8677C13.6654 14.063 13.3488 14.063 13.1535 13.8677L12.4464 13.1606ZM6.14708 3.35455C4.303 4.09075 3 5.8932 3 7.99998C3 10.7614 5.23858 13 8 13C10.6789 13 12.8657 10.8933 12.994 8.2462C12.998 8.16463 13 8.08254 13 7.99999C13 7.67166 12.9684 7.35072 12.9079 7.04005C12.2805 7.63501 11.4329 7.99999 10.5 7.99999C8.567 7.99999 7 6.43299 7 4.49999C7 3.98143 7.11277 3.48921 7.31514 3.04651C6.90813 3.10226 6.51674 3.20699 6.14708 3.35457C6.14708 3.35456 6.14708 3.35456 6.14708 3.35455ZM6.00013 4.53503C4.80446 5.22663 4 6.51936 4 7.99998C4 10.2091 5.79086 12 8 12C9.94598 12 11.5674 10.6104 11.9261 8.76934C11.478 8.91895 10.9984 8.99999 10.5 8.99999C8.02641 8.99999 6.01896 7.00418 6.00013 4.53503Z" fill="#40404B"/>
</svg>
