<!--
 * Copyright (c) 2023, WSO2 LLC. (https://www.wso2.com). All Rights Reserved.
 *
 * WSO2 LLC. licenses this file to you under the Apache License,
 * Version 2.0 (the "License"); you may not use this file except
 * in compliance with the License.
 * You may obtain a copy of the License at
 *
 *     http://www.apache.org/licenses/LICENSE-2.0
 *
 * Unless required by applicable law or agreed to in writing,
 * software distributed under the License is distributed on an
 * "AS IS" BASIS, WITHOUT WARRANTIES OR CONDITIONS OF ANY
 * KIND, either express or implied. See the License for the
 * specific language governing permissions and limitations
 * under the License.
-->

<svg width="16" height="16" viewBox="0 0 16 16" fill="none" xmlns="http://www.w3.org/2000/svg">
    <path fill-rule="evenodd" clip-rule="evenodd" d="M8 0C8.27614 0 8.5 0.223858 8.5 0.5V1.5C8.5 1.77614 8.27614 2 8 2C7.72386 2 7.5 1.77614 7.5 1.5V0.5C7.5 0.223858 7.72386 0 8 0ZM8 14C8.27614 14 8.5 14.2239 8.5 14.5V15.5C8.5 15.7761 8.27614 16 8 16C7.72386 16 7.5 15.7761 7.5 15.5V14.5C7.5 14.2239 7.72386 14 8 14ZM2 8C2 8.27614 1.77614 8.5 1.5 8.5H0.5C0.223858 8.5 0 8.27614 0 8C0 7.72386 0.223858 7.5 0.5 7.5H1.5C1.77614 7.5 2 7.72386 2 8ZM16 8C16 8.27614 15.7761 8.5 15.5 8.5H14.5C14.2239 8.5 14 8.27614 14 8C14 7.72386 14.2239 7.5 14.5 7.5H15.5C15.7761 7.5 16 7.72386 16 8ZM12.4464 3.54647C12.2512 3.35121 12.2512 3.03463 12.4464 2.83936L13.1535 2.13226C13.3488 1.937 13.6654 1.937 13.8606 2.13226C14.0559 2.32752 14.0559 2.6441 13.8606 2.83936L13.1535 3.54647C12.9583 3.74173 12.6417 3.74173 12.4464 3.54647ZM2.14645 2.15354C1.95118 2.3488 1.95118 2.66539 2.14645 2.86065L2.85355 3.56775C3.04882 3.76302 3.3654 3.76302 3.56066 3.56775C3.75592 3.37249 3.75592 3.05591 3.56066 2.86065L2.85355 2.15354C2.65829 1.95828 2.34171 1.95828 2.14645 2.15354ZM2.14645 13.8465C1.95118 13.6512 1.95118 13.3346 2.14645 13.1394L2.85355 12.4322C3.04882 12.237 3.3654 12.237 3.56066 12.4322C3.75592 12.6275 3.75592 12.9441 3.56066 13.1394L2.85355 13.8465C2.65829 14.0417 2.34171 14.0417 2.14645 13.8465ZM12.4464 12.4535C12.2512 12.6488 12.2512 12.9654 12.4464 13.1606L13.1535 13.8677C13.3488 14.063 13.6654 14.063 13.8606 13.8677C14.0559 13.6725 14.0559 13.3559 13.8606 13.1606L13.1535 12.4535C12.9583 12.2583 12.6417 12.2583 12.4464 12.4535ZM12 8C12 10.2091 10.2091 12 8 12C5.79086 12 4 10.2091 4 8C4 5.79086 5.79086 4 8 4C10.2091 4 12 5.79086 12 8ZM13 8C13 10.7614 10.7614 13 8 13C5.23858 13 3 10.7614 3 8C3 5.23858 5.23858 3 8 3C10.7614 3 13 5.23858 13 8Z" fill="#40404B"/>
</svg>
