<!--
 * Copyright (c) 2025, WSO2 LLC. (https://www.wso2.com).
 *
 * WSO2 LLC. licenses this file to you under the Apache License,
 * Version 2.0 (the "License"); you may not use this file except
 * in compliance with the License.
 * You may obtain a copy of the License at
 *
 *     http://www.apache.org/licenses/LICENSE-2.0
 *
 * Unless required by applicable law or agreed to in writing,
 * software distributed under the License is distributed on an
 * "AS IS" BASIS, WITHOUT WARRANTIES OR CONDITIONS OF ANY
 * KIND, either express or implied. See the License for the
 * specific language governing permissions and limitations
 * under the License.
-->

<svg xmlns="http://www.w3.org/2000/svg" viewBox="0 0 16 16">
    <path d="M9.6 2.279a.426.426 0 0 1 .8 0l.407 1.112a6.386 6.386 0 0 0 3.802 3.802l1.112.407a.426.426 0 0 1 0 .8l-1.112.407a6.386 6.386 0 0 0-3.802 3.802l-.407 1.112a.426.426 0 0 1-.8 0l-.407-1.112a6.386 6.386 0 0 0-3.802-3.802L4.279 8.4a.426.426 0 0 1 0-.8l1.112-.407a6.386 6.386 0 0 0 3.802-3.802L9.6 2.279Zm-4.267 8.837a.178.178 0 0 1 .334 0l.169.464a2.662 2.662 0 0 0 1.584 1.584l.464.169a.178.178 0 0 1 0 .334l-.464.169a2.662 2.662 0 0 0-1.584 1.584l-.169.464a.178.178 0 0 1-.334 0l-.169-.464a2.662 2.662 0 0 0-1.584-1.584l-.464-.169a.178.178 0 0 1 0-.334l.464-.169a2.662 2.662 0 0 0 1.584-1.584l.169-.464ZM2.8.14a.213.213 0 0 1 .4 0l.203.556a3.2 3.2 0 0 0 1.901 1.901l.556.203a.213.213 0 0 1 0 .4l-.556.203a3.2 3.2 0 0 0-1.901 1.901L3.2 5.86a.213.213 0 0 1-.4 0l-.203-.556A3.2 3.2 0 0 0 .696 3.403L.14 3.2a.213.213 0 0 1 0-.4l.556-.203A3.2 3.2 0 0 0 2.597.696L2.8.14Z"></path>
</svg>
