<svg width="20" height="20" viewBox="0 0 20 20" fill="none" xmlns="http://www.w3.org/2000/svg">
<g id="ac_unit_24px">
<path id="icon/places/ac_unit_24px" d="M18.3333 9.1665H14.8583L17.5583 6.4665L16.3833 5.28317L12.5 9.1665H10.8333V7.49984L14.7167 3.6165L13.5333 2.4415L10.8333 5.1415V1.6665H9.16666V5.1415L6.46666 2.4415L5.28332 3.6165L9.16666 7.49984V9.1665H7.49999L3.61666 5.28317L2.44166 6.4665L5.14166 9.1665H1.66666V10.8332H5.14166L2.44166 13.5332L3.61666 14.7165L7.49999 10.8332H9.16666V12.4998L5.28332 16.3832L6.46666 17.5582L9.16666 14.8582V18.3332H10.8333V14.8582L13.5333 17.5582L14.7167 16.3832L10.8333 12.4998V10.8332H12.5L16.3833 14.7165L17.5583 13.5332L14.8583 10.8332H18.3333V9.1665Z" fill="#F47B20"/>
</g>
</svg>
