<svg width="40" height="40" viewBox="0 0 40 40" fill="none" xmlns="http://www.w3.org/2000/svg">
<g opacity="0.9" clip-path="url(#clip0)">
<path d="M19.0088 31.2478C25.0748 31.2478 29.9924 26.3303 29.9924 20.2642C29.9924 14.1981 25.0748 9.28058 19.0088 9.28058C12.9427 9.28058 8.02515 14.1981 8.02515 20.2642C8.02515 26.3303 12.9427 31.2478 19.0088 31.2478Z" fill="#FCA574"/>
<path d="M39.9126 17.8431C39.8418 17.0662 39.4862 16.343 38.9142 15.8125C38.3423 15.2821 37.5943 14.9818 36.8143 14.9696C36.0343 14.9574 35.2774 15.2341 34.6891 15.7464C34.1008 16.2587 33.7228 16.9705 33.6277 17.7448L27.8003 18.2743C27.5243 17.014 26.9814 15.8275 26.2082 14.7947L27.7564 13.1476C28.2854 13.4299 28.8758 13.5778 29.4755 13.5781C29.5884 13.5781 29.7029 13.5729 29.8167 13.5626C30.6458 13.4892 31.426 13.1385 32.0314 12.5672C32.6368 11.9959 33.0321 11.2373 33.1534 10.4138C33.2747 9.5903 33.1151 8.74993 32.7002 8.02831C32.2853 7.30668 31.6394 6.74589 30.8666 6.43643C30.0939 6.12696 29.2394 6.08687 28.4411 6.32262C27.6428 6.55838 26.9472 7.05622 26.4666 7.73583C25.9859 8.41544 25.7483 9.23716 25.792 10.0684C25.8357 10.8997 26.1581 11.6919 26.7074 12.3174L25.3278 13.7846C24.3878 12.8486 23.2538 12.1302 22.0059 11.6801C20.758 11.2301 19.4265 11.0593 18.1054 11.1799C17.7081 11.2192 17.3138 11.2842 16.9249 11.3745L15.7142 8.32001C16.633 7.76679 17.3202 6.89938 17.6486 5.87839C17.977 4.85739 17.9243 3.75199 17.5003 2.76685C17.0763 1.78172 16.3097 0.983594 15.3424 0.520262C14.3752 0.0569304 13.2728 -0.0402199 12.2394 0.246801C11.206 0.533821 10.3116 1.18557 9.72185 2.08136C9.13209 2.97715 8.88689 4.05631 9.03166 5.119C9.17643 6.18169 9.70136 7.15593 10.5093 7.86132C11.3172 8.56671 12.3533 8.95546 13.4258 8.95559C13.5599 8.95559 13.6955 8.94953 13.8315 8.93739C14.0501 8.91564 14.2668 8.87802 14.48 8.82484L15.6432 11.7594C14.205 12.3139 12.9327 13.2273 11.9475 14.4127C11.4967 14.9575 11.1106 15.5528 10.7968 16.1866L6.8553 14.6401C6.86933 14.4876 6.86975 14.3341 6.85655 14.1815C6.81233 13.6946 6.62751 13.231 6.3246 12.8473C6.02168 12.4635 5.61373 12.1761 5.1504 12.02C4.68708 11.864 4.18838 11.846 3.71501 11.9682C3.24163 12.0905 2.81401 12.3477 2.4842 12.7086C2.15438 13.0695 1.9366 13.5185 1.85738 14.0009C1.77815 14.4834 1.84089 14.9784 2.03795 15.4259C2.23502 15.8733 2.55792 16.2538 2.96733 16.521C3.37674 16.7882 3.85502 16.9306 4.34392 16.9309C4.42028 16.9309 4.49706 16.9274 4.57405 16.9207C4.90405 16.8916 5.225 16.7973 5.51833 16.6433C5.81165 16.4893 6.07152 16.2787 6.28289 16.0236C6.3195 15.9797 6.35193 15.9334 6.3852 15.888L10.2874 17.4186C9.60863 19.5025 9.70702 21.7617 10.5644 23.7786L6.62349 26.2101C6.47645 26.0312 6.31305 25.8664 6.1354 25.7178C5.67959 25.338 5.139 25.0735 4.55937 24.9468C3.97974 24.8201 3.37812 24.8348 2.80538 24.9897C2.23264 25.1447 1.70564 25.4352 1.26896 25.8369C0.832269 26.2386 0.49874 26.7395 0.29658 27.2973C0.0944195 27.8552 0.0295747 28.4535 0.10753 29.0416C0.185486 29.6298 0.403948 30.1906 0.74444 30.6765C1.08493 31.1624 1.53744 31.5591 2.06368 31.8332C2.58992 32.1072 3.17443 32.2505 3.76775 32.2509C3.87905 32.2509 3.99223 32.2461 4.10521 32.2358C4.66154 32.1871 5.1995 32.0126 5.6784 31.7253C6.1573 31.438 6.56458 31.0456 6.86942 30.5777C7.17427 30.1098 7.36869 29.5786 7.43797 29.0245C7.50725 28.4704 7.44958 27.9077 7.26932 27.3792L11.1793 24.9661C11.8303 26.0372 12.6968 26.9612 13.724 27.6794C14.7511 28.3977 15.9164 28.8946 17.1458 29.1384L16.1504 33.1919C16.1129 33.194 16.0757 33.1932 16.0382 33.1963C15.2685 33.2657 14.5553 33.6291 14.0467 34.211C13.5382 34.7929 13.2735 35.5485 13.3078 36.3205C13.3421 37.0925 13.6727 37.8216 14.2309 38.3561C14.789 38.8906 15.5317 39.1894 16.3045 39.1902C16.3968 39.1902 16.4893 39.1858 16.5824 39.1777C17.2497 39.1161 17.8774 38.8332 18.3655 38.374C18.8535 37.9147 19.174 37.3054 19.276 36.643C19.3779 35.9806 19.2554 35.3031 18.928 34.7183C18.6006 34.1336 18.087 33.6751 17.469 33.4158L18.4799 29.2993C18.6241 29.3062 18.7678 29.3179 18.9132 29.3179C19.1922 29.3179 19.4717 29.3052 19.7517 29.2799C22.0025 29.0782 24.0954 28.0385 25.6159 26.3668L28.2953 29.2303C27.8672 29.8133 27.6089 30.5035 27.5491 31.2244C27.4894 31.9452 27.6305 32.6685 27.9569 33.3141C28.2832 33.9596 28.782 34.5021 29.3979 34.8814C30.0138 35.2607 30.7227 35.462 31.446 35.4629C31.5663 35.4629 31.6877 35.4577 31.8086 35.4466C32.4049 35.393 32.981 35.2036 33.4927 34.8928C34.0044 34.5821 34.4382 34.1582 34.7607 33.6538C35.0831 33.1494 35.2858 32.5778 35.3531 31.9829C35.4204 31.388 35.3505 30.7856 35.1488 30.2219C34.9472 29.6582 34.6191 29.1481 34.1897 28.7309C33.7603 28.3137 33.2411 28.0004 32.6718 27.815C32.1025 27.6296 31.4984 27.5771 30.9056 27.6614C30.3129 27.7458 29.7474 27.9648 29.2524 28.3016L26.4601 25.3159C27.5985 23.6362 28.1367 21.6214 27.9873 19.5978L33.7509 19.0747C33.9524 19.7164 34.3531 20.2773 34.8947 20.676C35.4364 21.0747 36.091 21.2906 36.7636 21.2924C36.859 21.2924 36.9556 21.288 37.0527 21.2794C37.8871 21.2018 38.6567 20.7965 39.1928 20.1523C39.7289 19.5082 39.9878 18.6778 39.9126 17.8431ZM29.2688 7.53296C29.3418 7.52605 29.4152 7.52312 29.4868 7.52312C30.1035 7.52384 30.6954 7.76583 31.136 8.19735C31.5766 8.62888 31.8309 9.21567 31.8444 9.83223C31.858 10.4488 31.6297 11.0462 31.2085 11.4966C30.7873 11.9471 30.2065 12.2148 29.5904 12.2426C28.9743 12.2704 28.3718 12.056 27.9118 11.6453C27.4517 11.2346 27.1706 10.6602 27.1286 10.0449C27.0865 9.42966 27.2869 8.82236 27.6869 8.35293C28.0869 7.88349 28.6546 7.58919 29.2688 7.53296ZM13.7105 7.60806C13.3028 7.64805 12.8911 7.60696 12.4993 7.48718C12.1075 7.36739 11.7432 7.17127 11.4275 6.9101C11.1118 6.64894 10.8509 6.32789 10.6598 5.96546C10.4687 5.60303 10.3512 5.20637 10.314 4.79833C10.2769 4.39029 10.3208 3.97893 10.4433 3.58795C10.5659 3.19697 10.7645 2.83409 11.0279 2.52021C11.2912 2.20633 11.6141 1.94766 11.9778 1.75909C12.3416 1.57052 12.739 1.45577 13.1473 1.42147C13.2432 1.41289 13.3394 1.4085 13.4344 1.4085C14.2338 1.40922 15.0021 1.7181 15.5795 2.2709C16.157 2.8237 16.4991 3.57784 16.5347 4.37644C16.5702 5.17504 16.2965 5.95661 15.7705 6.55856C15.2445 7.1605 14.5067 7.53648 13.7105 7.60827V7.60806ZM5.25734 15.1688C5.15793 15.2889 5.03562 15.3882 4.89753 15.4607C4.75943 15.5332 4.6083 15.5776 4.45292 15.5912C4.29759 15.6053 4.141 15.5887 3.99208 15.5424C3.84316 15.496 3.70483 15.4208 3.58498 15.321C3.46513 15.2212 3.36612 15.0987 3.2936 14.9606C3.22107 14.8226 3.17645 14.6716 3.16229 14.5162C3.14813 14.3609 3.1647 14.2043 3.21105 14.0554C3.25741 13.9065 3.33264 13.7681 3.43246 13.6483C3.53228 13.5284 3.65472 13.4294 3.7928 13.3569C3.93088 13.2844 4.0819 13.2398 4.23722 13.2256C4.27425 13.222 4.31065 13.2204 4.34727 13.2204C4.57276 13.221 4.79343 13.2857 4.9835 13.4071C5.17356 13.5284 5.32517 13.7013 5.42061 13.9056C5.51604 14.1099 5.55137 14.3372 5.52246 14.5608C5.49355 14.7844 5.40159 14.9952 5.25734 15.1685V15.1688ZM5.58308 30.0671C5.33452 30.3654 5.01625 30.5977 4.65645 30.7436C4.29664 30.8894 3.90642 30.9443 3.52035 30.9033C3.13428 30.8623 2.76428 30.7267 2.44312 30.5086C2.12196 30.2905 1.85955 29.9965 1.67915 29.6527C1.49875 29.3089 1.40592 28.9259 1.40889 28.5377C1.41185 28.1495 1.51052 27.768 1.69615 27.427C1.88178 27.086 2.14864 26.7961 2.4731 26.5829C2.79755 26.3696 3.16959 26.2397 3.55624 26.2047C3.62883 26.1978 3.70038 26.1948 3.77193 26.1948C4.22047 26.1953 4.6596 26.3234 5.03792 26.5644C5.41624 26.8054 5.71808 27.1491 5.90811 27.5554C6.09814 27.9617 6.16849 28.4137 6.11093 28.8585C6.05337 29.3034 5.87027 29.7226 5.58308 30.0671ZM17.9715 36.0349C18.0014 36.3637 17.9332 36.6939 17.7753 36.9839C17.6175 37.2739 17.3773 37.5105 17.0849 37.664C16.7926 37.8174 16.4614 37.8806 16.1331 37.8458C15.8048 37.8109 15.4942 37.6795 15.2406 37.4681C14.987 37.2567 14.8018 36.9749 14.7084 36.6582C14.615 36.3416 14.6176 36.0043 14.7159 35.6892C14.8142 35.374 15.0037 35.095 15.2605 34.8876C15.5174 34.6802 15.8299 34.5535 16.1587 34.5237C16.2104 34.5189 16.2614 34.5164 16.3127 34.5164C16.7288 34.5171 17.1296 34.6732 17.4365 34.9541C17.7435 35.235 17.9343 35.6205 17.9718 36.0349H17.9715ZM31.219 28.9673C31.2983 28.96 31.377 28.9568 31.455 28.9568C32.0997 28.9582 32.7207 29.1999 33.1966 29.6349C33.6725 30.0698 33.9691 30.6666 34.0283 31.3086C34.0746 31.8179 33.9688 32.3295 33.7243 32.7787C33.4798 33.2279 33.1076 33.5946 32.6547 33.8322C32.2019 34.0699 31.6887 34.1679 31.1802 34.114C30.6716 34.06 30.1904 33.8564 29.7976 33.529C29.4047 33.2015 29.1177 32.765 28.973 32.2745C28.8282 31.7839 28.8321 31.2615 28.9843 30.7732C29.1365 30.285 29.43 29.8528 29.8278 29.5313C30.2255 29.2099 30.7097 29.0136 31.219 28.9673ZM24.8847 25.1925C24.0685 26.1722 23.0233 26.9355 21.8416 27.4147C20.66 27.8939 19.3783 28.0743 18.1103 27.9398C16.8423 27.8054 15.627 27.3602 14.5721 26.6439C13.5172 25.9275 12.6552 24.9621 12.0626 23.833C11.47 22.7039 11.165 21.4461 11.1746 20.171C11.1843 18.8959 11.5083 17.6429 12.1179 16.5229C12.7275 15.4029 13.6039 14.4506 14.6696 13.7503C15.7352 13.05 16.9571 12.6233 18.227 12.508C18.4649 12.4861 18.701 12.4753 18.9352 12.4756C20.4082 12.477 21.8504 12.8979 23.0929 13.6892C24.3353 14.4804 25.3267 15.6092 25.9509 16.9435C26.5751 18.2777 26.8064 19.7622 26.6176 21.2231C26.4287 22.6839 25.8277 24.0608 24.8847 25.1925ZM36.9305 19.9488C36.6916 19.9705 36.4507 19.945 36.2216 19.8736C35.9925 19.8022 35.7797 19.6864 35.5954 19.5327C35.4111 19.3791 35.2589 19.1907 35.1474 18.9782C35.0359 18.7658 34.9673 18.5334 34.9456 18.2945C34.9239 18.0555 34.9495 17.8146 35.0209 17.5856C35.0923 17.3565 35.2081 17.1437 35.3617 16.9594C35.5153 16.7751 35.7037 16.6228 35.9162 16.5113C36.1287 16.3998 36.361 16.3313 36.6 16.3096C36.6564 16.3044 36.7125 16.3014 36.7686 16.3014C37.2386 16.3023 37.6902 16.4843 38.0295 16.8095C38.3688 17.1347 38.5698 17.5782 38.5907 18.0477C38.6115 18.5173 38.4507 18.9768 38.1416 19.3308C37.8324 19.6849 37.3988 19.9062 36.9307 19.9488H36.9305Z" fill="white" stroke="#333333" stroke-width="0.7" stroke-miterlimit="10"/>
</g>
<defs>
<clipPath id="clip0">
<rect width="40" height="39.2631" fill="white"/>
</clipPath>
</defs>
</svg>
