<svg width="40" height="42" viewBox="0 0 40 42" fill="none" xmlns="http://www.w3.org/2000/svg">
<g opacity="0.9" clip-path="url(#clip0)">
<path d="M17.0993 35.2833C25.1294 35.2833 31.6391 28.7736 31.6391 20.7434C31.6391 12.7133 25.1294 6.20361 17.0993 6.20361C9.06918 6.20361 2.55948 12.7133 2.55948 20.7434C2.55948 28.7736 9.06918 35.2833 17.0993 35.2833Z" fill="#FCA574"/>
<path d="M19.8283 8.69669L19.4663 6.91818L18.099 6.98873C17.8696 6.4552 17.5582 5.96078 17.1762 5.52336L17.8517 4.35437L16.4309 3.2244L15.4187 4.16479C14.9033 3.90887 14.3517 3.73342 13.7831 3.64454L13.5456 2.29938L11.7303 2.34608L11.5578 3.74524C11.0077 3.88024 10.4814 4.09826 9.9969 4.39181L8.92605 3.49241L7.5663 4.6945L8.34884 5.90389C8.02287 6.35399 7.76429 6.84924 7.58128 7.37399H6.15295L5.88396 9.16905L7.28312 9.59846C7.30046 9.84922 7.33376 10.0986 7.38283 10.3451C7.44116 10.6376 7.52328 10.9248 7.62837 11.2039L6.52481 12.1301L7.47348 13.6791L8.82101 13.1076C9.20095 13.5071 9.63703 13.8491 10.1155 14.1229L9.86782 15.5342L11.5888 16.1116L12.245 14.8268C12.8008 14.8924 13.3632 14.8752 13.914 14.7759L14.6167 15.9954L16.3059 15.3307L15.9906 13.9556C16.4677 13.6452 16.895 13.2644 17.2581 12.8262L18.5491 13.2946L19.4162 11.7L18.3138 10.8681C18.4829 10.3151 18.5653 9.7391 18.558 9.16078L19.8283 8.69669ZM13.4384 11.8005C12.9285 11.9037 12.3993 11.8535 11.9179 11.656C11.4365 11.4586 11.0244 11.1228 10.7338 10.6912C10.4432 10.2595 10.2871 9.75145 10.2853 9.23112C10.2834 8.71079 10.4359 8.2016 10.7234 7.76793C11.011 7.33425 11.4206 6.99557 11.9006 6.79471C12.3806 6.59385 12.9094 6.53982 13.4201 6.63946C13.9308 6.7391 14.4005 6.98794 14.7698 7.35451C15.1391 7.72107 15.3914 8.18891 15.4948 8.69886C15.5637 9.03755 15.5651 9.38649 15.499 9.72573C15.4328 10.065 15.3005 10.3878 15.1095 10.6759C14.9185 10.964 14.6727 11.2116 14.3859 11.4045C14.0992 11.5975 13.7772 11.732 13.4384 11.8005Z" fill="white" stroke="#333333" stroke-width="0.7" stroke-miterlimit="10"/>
<path d="M26.0965 31.3047C26.22 30.6691 26.297 30.0254 26.3271 29.3786L24.1002 28.678C24.0951 28.1072 24.0461 27.5376 23.9538 26.9742L26.0051 25.8131C25.8625 25.1938 25.6745 24.5857 25.4426 23.994L23.124 24.2583C22.8782 23.719 22.5887 23.2007 22.2583 22.7087L23.6574 20.8185C23.2776 20.3209 22.8637 19.8503 22.4185 19.4103L20.4068 20.5954C19.9498 20.1919 19.4596 19.8277 18.9415 19.5064L19.4503 17.2132C18.9059 16.9179 18.341 16.6619 17.7601 16.4472L16.4025 18.3516C15.811 18.1697 15.2051 18.0387 14.5913 17.9601L14.1224 15.6658C13.8176 15.6452 13.5092 15.6337 13.1986 15.6337C12.888 15.6337 12.5796 15.6452 12.2748 15.6658L11.8079 17.9601C11.1935 18.0387 10.587 18.1697 9.99493 18.3516L8.63814 16.4474C8.05732 16.6624 7.49249 16.9184 6.94791 17.2134L7.45575 19.5064C6.9378 19.828 6.44763 20.1922 5.99038 20.5954L3.98032 19.4099C3.53438 19.8494 3.12016 20.32 2.74078 20.8181L4.13994 22.7083C3.80888 23.2002 3.51887 23.7184 3.27285 24.2579L0.953994 23.9936C0.722855 24.5856 0.534889 25.1936 0.391571 25.8127L2.44479 26.9738C2.3509 27.537 2.30141 28.1067 2.29679 28.6776L0.0711441 29.378C0.0990902 30.0251 0.175636 30.6691 0.300133 31.3047L2.6452 31.529C2.78379 32.0595 2.96225 32.5789 3.17905 33.0826L1.43109 34.6315C1.72454 35.2195 2.06126 35.7849 2.43848 36.3229L4.67497 35.5757C5.0041 35.9884 5.363 36.3765 5.74878 36.7368L4.77823 38.8651C5.28883 39.2929 5.8315 39.6808 6.40145 40.0256L8.13681 38.4355C8.59335 38.675 9.06639 38.8816 9.55232 39.0539L9.53262 41.3989C10.1754 41.586 10.8316 41.7228 11.4956 41.8082L12.4324 39.6518C12.6849 39.6689 12.9397 39.6797 13.1972 39.6797C13.4548 39.6797 13.7096 39.6689 13.962 39.6518L14.8997 41.8082C15.5641 41.7225 16.221 41.5853 16.8642 41.398L16.8445 39.0529C17.3304 38.8805 17.8034 38.6738 18.26 38.4345L19.9954 40.0246C20.5652 39.6797 21.1079 39.2917 21.6186 38.8641L20.6475 36.7358C21.033 36.3752 21.3918 35.9872 21.7213 35.5747L23.9568 36.322C24.3343 35.7838 24.6715 35.2184 24.9657 34.6306L23.2168 33.0816C23.4339 32.5781 23.6121 32.0587 23.75 31.528L26.0965 31.3047ZM13.1992 34.9437C11.9683 34.9438 10.765 34.579 9.74142 33.8952C8.71788 33.2114 7.92011 32.2395 7.44898 31.1023C6.97786 29.9651 6.85455 28.7138 7.09465 27.5065C7.33475 26.2992 7.92748 25.1902 8.79787 24.3199C9.66827 23.4495 10.7772 22.8567 11.9845 22.6166C13.1918 22.3765 14.4431 22.4998 15.5803 22.971C16.7175 23.4421 17.6895 24.2399 18.3732 25.2634C19.057 26.2869 19.4219 27.4903 19.4217 28.7212C19.4213 30.3714 18.7656 31.9538 17.5987 33.1207C16.4319 34.2876 14.8494 34.9433 13.1992 34.9437Z" fill="white" stroke="#333333" stroke-width="0.7" stroke-miterlimit="10"/>
<path d="M30.4309 8.69412L31.0101 7.31013L30.0425 6.72347C30.1331 6.25256 30.1499 5.77044 30.0924 5.29436L31.095 4.80879L30.6489 3.37613L29.5211 3.55053C29.2875 3.1362 28.9916 2.76016 28.644 2.43554L29.1061 1.4043L27.8449 0.594166L27.0769 1.4717C26.6387 1.30843 26.1782 1.21249 25.7112 1.18713L25.3959 0.0764771L23.9093 0.26763L23.8833 1.45889C23.4507 1.61454 23.0433 1.83292 22.6743 2.10703L21.697 1.4445L20.6804 2.5457L21.4385 3.48984C21.2063 3.88094 21.0347 4.30498 20.9297 4.7475L19.7457 4.86791L19.6746 6.3656L20.8607 6.60208C20.9349 7.05182 21.0743 7.48832 21.2745 7.89778L20.4498 8.74674L21.3597 9.93957L22.4041 9.3669C22.7536 9.66956 23.1461 9.91873 23.5687 10.1063L23.4834 11.2658L24.9472 11.5951L25.3689 10.5083C25.8401 10.5174 26.31 10.4554 26.7628 10.3244L27.4259 11.2445L28.7594 10.5564L28.3929 9.47686C28.7649 9.17696 29.0879 8.82101 29.3504 8.42178L30.4309 8.69412ZM24.5038 8.13386C24.0515 7.94456 23.6655 7.62538 23.3946 7.2167C23.1236 6.80801 22.98 6.32817 22.9818 5.83784C22.9835 5.34752 23.1307 4.86873 23.4045 4.46202C23.6784 4.05531 24.0667 3.73894 24.5204 3.55291C24.9741 3.36689 25.4727 3.31956 25.9533 3.41692C26.4339 3.51427 26.8748 3.75194 27.2203 4.09987C27.5658 4.44779 27.8003 4.89035 27.8943 5.37159C27.9883 5.85283 27.9375 6.35112 27.7483 6.80348C27.4942 7.40995 27.0098 7.89075 26.4014 8.14021C25.793 8.38967 25.1105 8.38739 24.5038 8.13386Z" fill="white" stroke="#333333" stroke-width="0.7" stroke-miterlimit="10"/>
<path d="M38.3194 18.843L39.9229 18.3523L39.5907 16.1231L37.8906 16.1215C37.6402 15.4456 37.2867 14.8126 36.8426 14.2449L37.755 12.8404L36.0664 11.3448L34.752 12.4462C34.1295 12.0953 33.457 11.8413 32.7579 11.6933L32.5502 10.0105L30.2965 9.94983L29.9907 11.6738C29.3005 11.8058 28.6342 12.0412 28.0143 12.3721L26.7452 11.1882L24.9797 12.5903L25.8734 14.142C25.4387 14.6784 25.0856 15.276 24.8254 15.9156L23.0546 15.8226L22.6049 18.0315L24.3107 18.6561C24.3166 18.9676 24.342 19.2784 24.3866 19.5867C24.4413 19.953 24.5247 20.3145 24.6359 20.6678L23.2077 21.7453L24.28 23.7264L25.9903 23.1059C26.4356 23.6264 26.9545 24.0792 27.5305 24.4498L27.1307 26.184L29.2271 27.0117L30.1243 25.4606C30.8085 25.5797 31.5068 25.5953 32.1956 25.5069L32.9876 27.0621L35.1266 26.3492L34.8239 24.6237C35.4364 24.2695 35.9919 23.8248 36.4716 23.3047L38.0414 23.97L39.2206 22.0492L37.9084 20.9456C38.1527 20.2701 38.2913 19.5608 38.3194 18.843ZM31.8664 22.2404C31.1375 22.349 30.3928 22.239 29.7265 21.9244C29.0601 21.6098 28.502 21.1046 28.1228 20.4728C27.7435 19.841 27.5601 19.1109 27.5958 18.3749C27.6315 17.6389 27.8847 16.93 28.3233 16.3378C28.7619 15.7457 29.3662 15.2969 30.0599 15.0482C30.7536 14.7995 31.5054 14.7621 32.2203 14.9408C32.9352 15.1194 33.5811 15.506 34.0763 16.0517C34.5715 16.5975 34.8937 17.2778 35.0022 18.0066C35.1471 18.9838 34.8982 19.9785 34.3103 20.7723C33.7223 21.5661 32.8433 22.0941 31.8664 22.2404Z" fill="white" stroke="#333333" stroke-width="0.7" stroke-miterlimit="10"/>
</g>
<defs>
<clipPath id="clip0">
<rect width="40" height="41.8837" fill="white"/>
</clipPath>
</defs>
</svg>
