<svg width="40" height="35" viewBox="0 0 40 35" fill="none" xmlns="http://www.w3.org/2000/svg">
<g opacity="0.9" clip-path="url(#clip0)">
<path d="M19.9578 33.4702C29.122 33.4702 36.551 26.0412 36.551 16.877C36.551 7.71288 29.122 0.283875 19.9578 0.283875C10.7937 0.283875 3.36469 7.71288 3.36469 16.877C3.36469 26.0412 10.7937 33.4702 19.9578 33.4702Z" fill="#FCA574"/>
<path d="M34.3481 16.7238C33.0818 16.7256 31.8536 17.1572 30.8647 17.948C29.8757 18.7388 29.1845 19.842 28.9043 21.0769H24.3419L19.1463 15.8882H1.7952V18.3411H18.1317L23.328 23.53H28.9057C29.1365 24.5558 29.6523 25.4955 30.3938 26.241C31.1353 26.9865 32.0723 27.5073 33.0969 27.7435C34.1214 27.9798 35.1919 27.9218 36.1849 27.5763C37.178 27.2308 38.0532 26.6117 38.7098 25.7906C39.3665 24.9694 39.7778 23.9794 39.8964 22.9347C40.015 21.8899 39.8361 20.833 39.3803 19.8855C38.9245 18.938 38.2103 18.1385 37.32 17.5791C36.4297 17.0198 35.3995 16.7233 34.3481 16.7238ZM34.3481 25.4288C33.7299 25.4281 33.1259 25.2442 32.6123 24.9002C32.0987 24.5563 31.6986 24.0678 31.4625 23.4965C31.2265 22.9252 31.1651 22.2968 31.2862 21.6906C31.4073 21.0845 31.7053 20.5278 32.1427 20.091C32.5801 19.6542 33.1371 19.3569 33.7434 19.2366C34.3497 19.1164 34.9781 19.1786 35.5491 19.4154C36.1201 19.6521 36.608 20.0529 36.9513 20.567C37.2945 21.081 37.4777 21.6853 37.4776 22.3034C37.4758 23.1325 37.1454 23.9271 36.5588 24.513C35.9722 25.0988 35.1771 25.4282 34.3481 25.4288Z" fill="white" stroke="#333333" stroke-width="0.7" stroke-miterlimit="10"/>
<path d="M25.1347 30.7259L19.6251 25.2211H11.0945C10.7927 23.8821 10.0079 22.7013 8.89009 21.9046C7.77228 21.108 6.39999 20.7515 5.03577 20.9032C3.67155 21.055 2.41119 21.7045 1.49583 22.7273C0.580467 23.7502 0.0743713 25.0747 0.0743713 26.4473C0.0743713 27.8199 0.580467 29.1444 1.49583 30.1672C2.41119 31.1901 3.67155 31.8396 5.03577 31.9913C6.39999 32.1431 7.77228 31.7866 8.89009 30.99C10.0079 30.1933 10.7927 29.0125 11.0945 27.6734H18.6103L24.1199 33.1782H38.0819V30.7253H25.1347V30.7259ZM5.6531 29.5727C5.03492 29.5722 4.43076 29.3884 3.917 29.0446C3.40323 28.7009 3.00294 28.2124 2.76673 27.6412C2.53051 27.0699 2.46898 26.4414 2.58991 25.8352C2.71084 25.229 3.0088 24.6722 3.44613 24.2353C3.88345 23.7984 4.4405 23.5009 5.04685 23.3806C5.6532 23.2602 6.28162 23.3223 6.85267 23.5591C7.42372 23.7959 7.91174 24.1966 8.25505 24.7107C8.59836 25.2248 8.78153 25.8291 8.78142 26.4473C8.77975 27.2762 8.44954 28.0707 7.86315 28.6565C7.27676 29.2424 6.48202 29.5719 5.6531 29.5729V29.5727Z" fill="white" stroke="#333333" stroke-width="0.7" stroke-miterlimit="10"/>
<path d="M38.7098 9.6954H31.0828C30.7811 8.35601 29.9961 7.1749 28.8781 6.37804C27.7601 5.58118 26.3875 5.22453 25.0229 5.37632C23.6584 5.52811 22.3978 6.17769 21.4822 7.20077C20.5666 8.22386 20.0604 9.5486 20.0604 10.9216C20.0604 12.2945 20.5666 13.6192 21.4822 14.6423C22.3978 15.6654 23.6584 16.315 25.0229 16.4668C26.3875 16.6186 27.7601 16.2619 28.8781 15.4651C29.9961 14.6682 30.7811 13.4871 31.0828 12.1477H38.7092V9.6954H38.7098ZM25.6409 14.0485C25.0228 14.0477 24.4188 13.8638 23.9053 13.5199C23.3917 13.176 22.9916 12.6875 22.7556 12.1163C22.5196 11.5451 22.4582 10.9167 22.5792 10.3105C22.7002 9.70443 22.9982 9.14779 23.4354 8.71098C23.8727 8.27416 24.4297 7.97679 25.0359 7.85643C25.6422 7.73607 26.2705 7.79814 26.8415 8.03478C27.4125 8.27143 27.9005 8.67203 28.2438 9.18596C28.5872 9.69988 28.7705 10.3041 28.7706 10.9221C28.7692 11.7515 28.439 12.5465 27.8522 13.1326C27.2655 13.7188 26.4703 14.0483 25.6409 14.0489V14.0485Z" fill="white" stroke="#333333" stroke-width="0.7" stroke-miterlimit="10"/>
<path d="M22.3264 0.0701517L16.0476 6.34176H11.0945C10.7928 5.00237 10.0078 3.82125 8.88974 3.02439C7.77171 2.22753 6.39911 1.87088 5.03458 2.02267C3.67004 2.17446 2.40938 2.82404 1.4938 3.84713C0.578211 4.87021 0.071991 6.19496 0.071991 7.56791C0.071991 8.94086 0.578211 10.2656 1.4938 11.2887C2.40938 12.3118 3.67004 12.9614 5.03458 13.1131C6.39911 13.2649 7.77171 12.9083 8.88974 12.1114C10.0078 11.3146 10.7928 10.1335 11.0945 8.79406H17.0627L23.342 2.52187H38.0815V0.0689697H22.3264V0.0701517ZM5.65311 10.695C5.03498 10.6946 4.43087 10.5109 3.91713 10.1671C3.4034 9.82338 3.0031 9.33504 2.76685 8.76384C2.5306 8.19264 2.469 7.56422 2.58983 6.95802C2.71067 6.35181 3.00851 5.79504 3.44572 5.35808C3.88293 4.92112 4.43987 4.62359 5.04614 4.5031C5.65241 4.38261 6.2808 4.44457 6.85186 4.68114C7.42293 4.91772 7.91104 5.31829 8.25449 5.83222C8.59794 6.34615 8.78131 6.95037 8.78143 7.5685C8.78002 8.39758 8.44993 9.19229 7.86351 9.77837C7.27709 10.3645 6.4822 10.6941 5.65311 10.695Z" fill="white" stroke="#333333" stroke-width="0.7" stroke-miterlimit="10"/>
</g>
<defs>
<clipPath id="clip0">
<rect width="40" height="34.7591" fill="white"/>
</clipPath>
</defs>
</svg>
