<?xml version="1.0" encoding="utf-8"?>
<!-- Generator: Adobe Illustrator 24.3.0, SVG Export Plug-In . SVG Version: 6.00 Build 0)  -->
<svg version="1.1" id="Layer_1" xmlns="http://www.w3.org/2000/svg" xmlns:xlink="http://www.w3.org/1999/xlink" x="0px" y="0px"
	 viewBox="0 0 110 70" style="enable-background:new 0 0 110 70;" xml:space="preserve">
<style type="text/css">
	.st0{fill:none;stroke:#212A32;stroke-miterlimit:10;}
	.st1{fill:#FFFFFF;stroke:#FF7300;stroke-miterlimit:10;}
</style>
<g>
	<circle class="st0" cx="44.4" cy="35" r="30.6"/>
	<g>
		<path class="st1" d="M74.2,17.2h-3.7c-2.4,2.5-7,4.3-12.3,4.4c0,3.2,0,8,0,13.4c0,12.1,14.1,17.8,14.1,17.8S86.5,47.1,86.5,35
			c0-4.2,0-9.6,0-13.4C81.2,21.5,76.7,19.7,74.2,17.2z"/>
		<polyline class="st1" points="65.6,34.7 70.3,41.6 80.3,29.2 		"/>
	</g>
	<g>
		<path class="st1" d="M28.6,33.1h-3.1v-6.4c0-5.2-4.2-9.5-9.5-9.5h-0.6c-5.2,0-9.5,4.2-9.5,9.5v6.4H2.9c-0.6,0-1.1,0.5-1.1,1.1V50
			c0,0.6,0.5,1.1,1.1,1.1h25.7c0.6,0,1.1-0.5,1.1-1.1V34.2C29.7,33.6,29.2,33.1,28.6,33.1z M22,33.1H9.6v-6.4c0-3.3,2.6-5.9,5.9-5.9
			H16c3.3,0,5.9,2.6,5.9,5.9V33.1z"/>
		<path class="st1" d="M17.4,45.7c0,0.2-0.2,0.5-0.4,0.5h-2.4c-0.2,0-0.4-0.2-0.3-0.4l0.5-3.9c-0.7-0.4-1.1-1.1-1-2
			c0.1-1,0.9-1.9,2-1.9c1.2-0.1,2.2,0.9,2.2,2.1c0,0.8-0.4,1.4-1,1.8L17.4,45.7z"/>
		<path class="st1" d="M4.4,52.8"/>
	</g>
</g>
</svg>
