<?xml version="1.0" encoding="utf-8"?>
<!-- Generator: Adobe Illustrator 24.3.0, SVG Export Plug-In . SVG Version: 6.00 Build 0)  -->
<svg version="1.1" id="Layer_1" xmlns="http://www.w3.org/2000/svg" xmlns:xlink="http://www.w3.org/1999/xlink" x="0px" y="0px"
	 viewBox="0 0 110 70" style="enable-background:new 0 0 110 70;" xml:space="preserve">
<style type="text/css">
	.st0{fill:none;stroke:#212A32;stroke-miterlimit:10;}
	.st1{fill:none;stroke:#FF7300;stroke-miterlimit:10;}
</style>
<g>
	<g>
		<g>
			<path class="st0" d="M71.3,31.2c0-8.9-7.3-16.2-16.2-16.2s-16.2,7.3-16.2,16.2c0,5.9,3.6,9.6,3.6,9.6c2.3,2.4,4.2,6.7,4.2,9.7
				s2.7,5.4,6,5.4h4.8c3.3,0,6-2.4,6-5.4s1.9-7.3,4.2-9.7C67.7,40.8,71.3,37.1,71.3,31.2z"/>
		</g>
		<path class="st0" d="M55.7,66.4h-1.2c-2.9,0-5.2-2.3-5.2-5.2v-3.6H61v3.6C61,64.1,58.6,66.4,55.7,66.4z"/>
		<line class="st1" x1="55.1" y1="3.6" x2="55.1" y2="10.8"/>
		<line class="st1" x1="67.2" y1="6.4" x2="64.1" y2="12.9"/>
		<line class="st1" x1="76.3" y1="13.5" x2="70.9" y2="18.2"/>
		<line class="st1" x1="36.5" y1="38.8" x2="30" y2="41.2"/>
		<line class="st1" x1="81.5" y1="22.6" x2="74.6" y2="25.1"/>
		<line class="st1" x1="46.1" y1="12.9" x2="43.1" y2="6.4"/>
		<line class="st1" x1="39.4" y1="18.2" x2="34" y2="13.5"/>
		<line class="st1" x1="35.7" y1="25.1" x2="28.8" y2="22.6"/>
		<line class="st1" x1="80.3" y1="41.2" x2="73.5" y2="38.7"/>
		<line class="st0" x1="34.8" y1="32.1" x2="23.5" y2="32.1"/>
		<line class="st0" x1="86.8" y1="32.1" x2="75.5" y2="32.1"/>
		<path class="st0" d="M56.8,55.8c0,0-1.5-17.3,1.4-21.8c2.2-3.4-4.1-5.5-4.5-3.4c-0.8,3.8,3.4,3.1,4.1,1.5c1.9-4-6-5-6.5-2.6
			c-0.6,2.7,0.5,3.3,1.5,9.2c1.3,7.4,0.7,17.1,0.7,17.1"/>
	</g>
	<circle class="st0" cx="12.6" cy="32.1" r="10.8"/>
	<circle class="st0" cx="97.6" cy="32.1" r="10.8"/>
</g>
</svg>
