<?xml version="1.0" encoding="utf-8"?>
<!-- Generator: Adobe Illustrator 24.3.0, SVG Export Plug-In . SVG Version: 6.00 Build 0)  -->
<svg version="1.1" id="Layer_1" xmlns="http://www.w3.org/2000/svg" xmlns:xlink="http://www.w3.org/1999/xlink" x="0px" y="0px"
	 viewBox="0 0 110 70" style="enable-background:new 0 0 110 70;" xml:space="preserve">
<style type="text/css">
	.st0{fill:none;stroke:#212A32;stroke-miterlimit:10;}
	.st1{fill:none;stroke:#FF7300;stroke-linejoin:round;stroke-miterlimit:10;}
	.st2{fill:none;stroke:#FF7300;stroke-miterlimit:10;}
</style>
<g>
	<g>
		<g>
			<path class="st0" d="M17,49.2c-1.5,1.4-1.5,3.8-0.1,5.3c0.7,0.7,1.7,1.1,2.6,1.1c0.9,0,1.9-0.3,2.6-1l12.4-12l-5.1-5.4L17,49.2z
				 M17,49.2"/>
			<path class="st0" d="M47.9,27.1l5.4-2.7l2.9-5.3l-2.5-2.6l-5.4,2.7l-2.8,5.3l-6.6,6.4l2.6,2.7L47.9,27.1z M47.9,27.1"/>
			<path class="st0" d="M48.8,41.2l-0.5-0.1c-0.9,0-1.8,0.2-2.6,0.4L30.8,26c0.3-0.8,0.5-1.7,0.5-2.6l0-0.5c-0.2-3.9-3.3-7-7.2-7.1
				c-1.1,0-2.2,0.2-3.2,0.7l4.8,5c0.3,0.3,0.4,0.6,0.5,0.9c0.3,0.9,0.1,1.9-0.6,2.6c-0.5,0.5-1.1,0.7-1.8,0.7
				c-0.3,0-0.6-0.1-0.9-0.2c-0.3-0.1-0.6-0.3-0.9-0.6l-4.8-5c-0.5,1-0.8,2-0.8,3.2c-0.1,3.9,2.9,7.2,6.8,7.5l0.5,0.1
				c0.9,0,1.8-0.2,2.6-0.4l15,15.5c-0.3,0.8-0.5,1.7-0.5,2.6l0,0.5c0.2,3.9,3.3,7,7.3,7.1c1.1,0,2.2-0.2,3.2-0.7l-4.8-5
				c-0.3-0.3-0.4-0.6-0.6-0.9c-0.3-0.9-0.1-1.9,0.6-2.6c0.5-0.5,1.1-0.7,1.8-0.7c0.3,0,0.6,0.1,0.9,0.2c0.3,0.1,0.6,0.3,0.9,0.6
				l4.9,5c0.5-1,0.8-2,0.8-3.2C55.7,44.8,52.7,41.5,48.8,41.2L48.8,41.2z M48.8,41.2"/>
		</g>
	</g>
	<path class="st1" d="M74.3,27.2L67.5,35c0-18.1-14.6-32.7-32.7-32.7S2.1,16.9,2.1,35s14.6,32.7,32.7,32.7c2,0,3.9-0.2,5.8-0.5"/>
	<line class="st2" x1="58.7" y1="29.6" x2="67.5" y2="35"/>
</g>
</svg>
