<?xml version="1.0" encoding="utf-8"?>
<!-- Generator: Adobe Illustrator 24.3.0, SVG Export Plug-In . SVG Version: 6.00 Build 0)  -->
<svg version="1.1" id="Layer_1" xmlns="http://www.w3.org/2000/svg" xmlns:xlink="http://www.w3.org/1999/xlink" x="0px" y="0px"
	 viewBox="0 0 110 70" style="enable-background:new 0 0 110 70;" xml:space="preserve">
<style type="text/css">
	.st0{fill:none;stroke:#212A32;stroke-miterlimit:10;}
	.st1{fill:#FFFFFF;stroke:#212A32;stroke-miterlimit:10;}
	.st2{fill:none;stroke:#FF7300;stroke-miterlimit:10;}
</style>
<g>
	<path class="st0" d="M57.7,69.9C66.5,60.9,72,48.6,72,35S66.5,9.1,57.7,0.1"/>
	<g>
		<g>
			<g>
				<circle class="st0" cx="42.1" cy="12.1" r="4.4"/>
				<path class="st0" d="M41.3,7.8c0,0,0.2,1.6,0.8,2.5c1.6,2.1,4.4,1.8,4.4,1.8"/>
				<path class="st0" d="M41.3,9.7c0,0-0.3,0.7-1.6,1.5c-1,0.6-2.1,0.2-2.1,0.2"/>
				<path class="st0" d="M34.9,24.9c0,1.2,3.2,2.1,7.2,2.1c2,0,3.8-0.2,5.1-0.6"/>
				<path class="st0" d="M49.1,22.6c-0.6-3.6-2.5-5.5-7-5.5c-5.2,0-7,2.8-7.2,7.7v0.1"/>
			</g>
			<g>
				<circle class="st1" cx="53.1" cy="14.1" r="5.5"/>
				<path class="st1" d="M52.1,8.8c0,0,0.2,2,1,3.1c2,2.6,5.5,2.3,5.5,2.3"/>
				<path class="st1" d="M52.1,11.2c0,0-0.3,0.9-2,1.9c-1.3,0.8-2.6,0.2-2.6,0.2"/>
				<path class="st1" d="M44.2,30c0,1.5,4,2.7,8.9,2.7S62,31.4,62,30c0-0.1,0-0.1,0-0.2"/>
				<path class="st1" d="M62,29.8c-0.2-6.1-2.4-9.5-8.9-9.5c-6.4,0-8.7,3.5-8.9,9.5c0,0.1,0,0.1,0,0.2"/>
			</g>
		</g>
		<line class="st2" x1="75.2" y1="50" x2="22.9" y2="36.6"/>
		<line class="st2" x1="32.7" y1="27.6" x2="22.9" y2="30.4"/>
		<g>
			<g>
				<circle class="st0" cx="84.8" cy="41.8" r="4.4"/>
				<path class="st0" d="M84,37.5c0,0,0.2,1.6,0.8,2.5c1.6,2.1,4.4,1.8,4.4,1.8"/>
				<path class="st0" d="M84,39.4c0,0-0.3,0.7-1.6,1.5c-1,0.6-2.1,0.2-2.1,0.2"/>
				<path class="st0" d="M77.6,54.6c0,1.2,3.2,2.1,7.2,2.1c2,0,3.8-0.2,5.1-0.6"/>
				<path class="st0" d="M91.7,52.3c-0.6-3.6-2.5-5.5-7-5.5c-5.2,0-7,2.8-7.2,7.7v0.1"/>
			</g>
			<g>
				<circle class="st1" cx="95.8" cy="43.8" r="5.5"/>
				<path class="st1" d="M94.8,38.4c0,0,0.2,2,1,3.1c2,2.6,5.5,2.3,5.5,2.3"/>
				<path class="st1" d="M94.8,40.8c0,0-0.3,0.9-2,1.9c-1.3,0.8-2.6,0.2-2.6,0.2"/>
				<path class="st1" d="M86.9,59.6c0,1.5,4,2.7,8.9,2.7s8.9-1.2,8.9-2.7c0-0.1,0-0.1,0-0.2"/>
				<path class="st1" d="M104.7,59.5c-0.2-6.1-2.4-9.5-8.9-9.5c-6.4,0-8.7,3.5-8.9,9.5c0,0.1,0,0.1,0,0.2"/>
			</g>
		</g>
		<circle class="st0" cx="13.3" cy="33.6" r="10"/>
	</g>
</g>
</svg>
