<?xml version="1.0" encoding="utf-8"?>
<!-- Generator: Adobe Illustrator 24.3.0, SVG Export Plug-In . SVG Version: 6.00 Build 0)  -->
<svg version="1.1" id="Layer_1" xmlns="http://www.w3.org/2000/svg" xmlns:xlink="http://www.w3.org/1999/xlink" x="0px" y="0px"
	 viewBox="0 0 110 70" style="enable-background:new 0 0 110 70;" xml:space="preserve">
<style type="text/css">
	.st0{fill:#FFFFFF;stroke:#212A32;stroke-miterlimit:10;}
	.st1{fill:#FFFFFF;stroke:#FF7300;stroke-miterlimit:10;}
</style>
<g>
	<polyline class="st0" points="64.8,53.4 64.8,3.5 3,3.5 	"/>
	<polyline class="st0" points="3,3.5 3,53.4 64.8,53.4 	"/>
	<g>
		<path class="st0" d="M51,62.9c0,2-7.6,3.7-17.1,3.7c-9.4,0-17.1-1.6-17.1-3.7c0-2,7.6-3.7,17.1-3.7C43.3,59.2,51,60.9,51,62.9z"/>
	</g>
	<g>
		<line class="st0" x1="10.6" y1="25.8" x2="32.7" y2="25.8"/>
		<rect x="12.5" y="10.7" class="st1" width="3.1" height="12.4"/>
		<rect x="20.1" y="15.3" class="st1" width="3.1" height="7.8"/>
		<rect x="27.8" y="13" class="st1" width="3.1" height="10.1"/>
	</g>
	<g>
		<line class="st0" x1="11.2" y1="45" x2="32.6" y2="45"/>
		<polygon class="st1" points="11.8,41.8 19.7,36.1 22.4,38.8 28.7,33.9 32,41.8 32,41.8 		"/>
	</g>
	<g>
		<line class="st0" x1="36.8" y1="25.2" x2="58.5" y2="25.2"/>
		<line class="st1" x1="36.8" y1="20.9" x2="58.5" y2="14"/>
	</g>
	<g>
		<g>
			<path class="st0" d="M53.8,40c-1.1-2.9-2.5-4.7-5.7-5.5c-3.5-0.9-7.2,0.2-9.6,2.6c2.2-3.9,6.8-6,11.3-4.8c3.5,0.9,6.1,3.6,7,6.9
				L53.8,40z"/>
		</g>
		<line class="st1" x1="50" y1="30.8" x2="45.4" y2="47.2"/>
		<circle class="st0" cx="47" cy="41.7" r="1.7"/>
		<circle class="st0" cx="47" cy="41.7" r="0.4"/>
	</g>
	<line class="st0" x1="33.9" y1="53.4" x2="33.9" y2="63"/>
</g>
</svg>
