<svg width="37" height="37" viewBox="0 0 37 37" fill="none" xmlns="http://www.w3.org/2000/svg">
<path d="M18.5 6.93748V2.31248M18.5 2.31248L21.9687 1.92706M18.5 2.31248L15.0312 2.6979" stroke="#40404B" stroke-width="1.5" stroke-linecap="round"/>
<path d="M3.08337 16.3326C3.08337 12.2144 5.99018 8.66866 10.0284 7.86101C15.6208 6.74254 21.3793 6.74254 26.9717 7.86101C31.0099 8.66866 33.9167 12.2144 33.9167 16.3326V26.0632C33.9167 30.1815 31.0099 33.7272 26.9717 34.5349C21.3793 35.6533 15.6208 35.6533 10.0284 34.5349C5.99018 33.7272 3.08337 30.1815 3.08337 26.0633V16.3326Z" fill="#E0E8ED"/>
<path d="M5.39587 16.1991C5.39587 13.4081 7.33071 10.99 10.0537 10.3779C15.6152 9.12769 21.3849 9.12769 26.9463 10.3779C29.6694 10.99 31.6042 13.4081 31.6042 16.1991V18.4885C31.6042 21.2795 29.6694 23.6975 26.9463 24.3097C21.3849 25.5599 15.6152 25.5599 10.0537 24.3097C7.33071 23.6975 5.39587 21.2795 5.39587 18.4885V16.1991Z" fill="url(#paint0_linear_163_799)"/>
<rect x="11.5625" y="14.6458" width="3.08333" height="4.625" rx="1.54167" fill="white"/>
<rect x="22.3541" y="14.6458" width="3.08333" height="4.625" rx="1.54167" fill="white"/>
<path d="M13.8833 30.608C16.2238 31.3847 21.5541 32.3947 24.1515 30.2215" stroke="#40404B" stroke-width="1.5" stroke-linecap="round"/>
<defs>
<linearGradient id="paint0_linear_163_799" x1="18.5" y1="8.47919" x2="18.5" y2="26.2084" gradientUnits="userSpaceOnUse">
<stop stop-color="#F37D21"/>
<stop offset="1" stop-color="#B7580D"/>
</linearGradient>
</defs>
</svg>
