<svg width="24" height="24" viewBox="0 0 24 24" fill="none" xmlns="http://www.w3.org/2000/svg">
<path fill-rule="evenodd" clip-rule="evenodd" d="M13.7143 0.328768C13.7143 5.95753 9.38831 10.5205 4.05195 10.5205C3.94766 10.5205 3.84376 10.5188 3.74026 10.5153V10.8545C3.84376 10.8511 3.94766 10.8493 4.05195 10.8493C9.38831 10.8493 13.7143 15.4123 13.7143 21.0411C13.7143 21.1511 13.7126 21.2607 13.7094 21.3699H14.0309C14.0276 21.2607 14.026 21.1511 14.026 21.0411C14.026 15.4123 18.352 10.8493 23.6883 10.8493C23.7926 10.8493 23.8965 10.8511 24 10.8545V10.5153C23.8965 10.5188 23.7926 10.5205 23.6883 10.5205C18.352 10.5205 14.026 5.95753 14.026 0.328768C14.026 0.218763 14.0276 0.109165 14.0309 0H13.7094C13.7126 0.109165 13.7143 0.218763 13.7143 0.328768ZM5.54323 14.9361C5.54323 17.3608 3.67974 19.3264 1.381 19.3264C1.33608 19.3264 1.29133 19.3257 1.24675 19.3242V19.4703C1.29133 19.4688 1.33608 19.4681 1.381 19.4681C3.67974 19.4681 5.54323 21.4337 5.54323 23.8584C5.54323 23.9058 5.54252 23.953 5.54111 24H5.67963C5.67822 23.953 5.67751 23.9058 5.67751 23.8584C5.67751 21.4337 7.54101 19.4681 9.83975 19.4681C9.88468 19.4681 9.92944 19.4688 9.97403 19.4703V19.3242C9.92944 19.3257 9.88468 19.3264 9.83975 19.3264C7.54101 19.3264 5.67751 17.3608 5.67751 14.9361C5.67751 14.8888 5.67822 14.8415 5.67963 14.7945H5.54111C5.54252 14.8415 5.54323 14.8888 5.54323 14.9361ZM0.0431519 14.6074C0.782033 14.6074 1.38101 13.9756 1.38101 13.1962C1.38101 13.181 1.38079 13.1658 1.38033 13.1507H1.42485C1.4244 13.1658 1.42417 13.181 1.42417 13.1962C1.42417 13.9756 2.02315 14.6074 2.76203 14.6074C2.77647 14.6074 2.79086 14.6071 2.80519 14.6067V14.6536C2.79086 14.6531 2.77647 14.6529 2.76203 14.6529C2.02315 14.6529 1.42417 15.2847 1.42417 16.0641C1.42417 16.0793 1.4244 16.0945 1.42485 16.1096H1.38033C1.38079 16.0945 1.38101 16.0793 1.38101 16.0641C1.38101 15.2847 0.782033 14.6529 0.0431519 14.6529C0.0287133 14.6529 0.0143282 14.6531 0 14.6536V14.6067C0.0143282 14.6071 0.0287133 14.6074 0.0431519 14.6074Z" fill="#1A4C6D"/>
</svg>
