<?xml version="1.0" encoding="utf-8"?>
<!-- Generator: Adobe Illustrator 24.3.0, SVG Export Plug-In . SVG Version: 6.00 Build 0)  -->
<svg version="1.1" id="Layer_1" xmlns="http://www.w3.org/2000/svg" xmlns:xlink="http://www.w3.org/1999/xlink" x="0px" y="0px"
	 viewBox="0 0 110 70" style="enable-background:new 0 0 110 70;" xml:space="preserve">
<style type="text/css">
	.st0{fill:#FF7300;}
	.st1{fill:none;stroke:#434343;stroke-miterlimit:10;}
	.st2{fill:none;stroke:#434343;stroke-miterlimit:9.9999;}
</style>
<g>
	<g>
		<g>
			<g>
				<path class="st0" d="M49.4,22c0.3,0,0.7,0,1.1,0l1.2,2.6l0.2,0.4l0.5,0.1c0.6,0.2,1.3,0.4,1.8,0.7l0.4,0.2l0.4-0.2l2.6-1.1
					c0.5,0.4,1.1,0.9,1.6,1.6l-1.1,2.6L58,29.7l0.2,0.4c0.3,0.5,0.5,1.2,0.7,1.8l0.1,0.5l0.4,0.2l2.6,1.2c0,0.3,0,0.7,0,1.1
					c0,0.3,0,0.7,0,1.1l-2.6,1.2L59,37.3l-0.1,0.5c-0.2,0.6-0.4,1.3-0.7,1.8L58,40.1l0.2,0.4l1.1,2.6c-0.4,0.5-0.9,1.1-1.6,1.6
					L55,43.6l-0.4-0.2l-0.4,0.2c-0.5,0.3-1.2,0.5-1.8,0.7l-0.5,0.1l-0.2,0.4l-1.2,2.6c-0.3,0-0.7,0-1.1,0c-0.3,0-0.7,0-1.1,0
					l-1.2-2.6L47,44.5l-0.5-0.1c-0.6-0.2-1.3-0.4-1.8-0.7l-0.4-0.2l-0.4,0.1l-2.6,1.1c-0.5-0.4-1.1-0.9-1.6-1.6l1.1-2.6l0.2-0.4
					l-0.2-0.4c-0.3-0.5-0.5-1.2-0.7-1.8l-0.1-0.5L39.4,37l-2.6-1.2c0-0.3,0-0.7,0-1.1c0-0.3,0-0.7,0-1.1l2.6-1.2l0.4-0.2l0.1-0.5
					c0.2-0.6,0.4-1.3,0.7-1.8l0.2-0.4l-0.2-0.4l-1.1-2.6c0.4-0.5,0.9-1.1,1.6-1.6l2.6,1.1l0.4,0.2l0.4-0.2c0.5-0.3,1.2-0.5,1.8-0.7
					l0.5-0.1l0.2-0.4l1.2-2.6C48.7,22,49.1,22,49.4,22 M49.4,21c-0.6,0-1.3,0-1.8,0.1l-1.4,3.3c-0.7,0.2-1.4,0.5-2,0.8L41,23.8
					c-0.9,0.7-1.8,1.6-2.5,2.5l1.4,3.3c-0.3,0.6-0.6,1.3-0.8,2L35.7,33c-0.1,0.6-0.1,1.2-0.1,1.8c0,0.6,0,1.3,0.1,1.8l3.3,1.4
					c0.2,0.7,0.5,1.4,0.8,2l-1.4,3.3c0.7,0.9,1.6,1.8,2.5,2.5l3.3-1.4c0.6,0.3,1.3,0.6,2,0.8l1.4,3.3c0.6,0.1,1.2,0.1,1.8,0.1
					s1.3,0,1.8-0.1l1.4-3.3c0.7-0.2,1.4-0.5,2-0.8l3.3,1.4c0.9-0.7,1.8-1.6,2.5-2.5L59,40c0.3-0.6,0.6-1.3,0.8-2l3.3-1.4
					c0.1-0.6,0.1-1.2,0.1-1.8c0-0.6,0-1.3-0.1-1.8l-3.3-1.4c-0.2-0.7-0.5-1.4-0.8-2l1.4-3.3c-0.7-0.9-1.6-1.8-2.5-2.5l-3.3,1.4
					c-0.6-0.3-1.3-0.6-2-0.8l-1.4-3.3C50.7,21,50.1,21,49.4,21L49.4,21z"/>
			</g>
		</g>
		<g>
			<path class="st0" d="M49.4,29.4c3.1,0,5.5,2.4,5.5,5.5s-2.4,5.4-5.5,5.4s-5.5-2.4-5.5-5.5S46.4,29.4,49.4,29.4 M49.4,28.4
				c-3.6,0-6.5,2.9-6.5,6.5s2.9,6.5,6.5,6.5s6.5-2.9,6.5-6.5C56,31.2,53,28.4,49.4,28.4L49.4,28.4z"/>
		</g>
	</g>
	<g>
		<path class="st1" d="M49.3,17.4v-8c0-2.1-1.7-3.9-3.9-3.9H6.8C4.9,5.5,3.4,7,3.4,8.9v51.7c0,2.2,1.8,3.9,3.9,3.9h38.3
			c2,0,3.7-1.7,3.7-3.7v-9"/>
	</g>
	<ellipse class="st1" cx="19.4" cy="13.9" rx="5.6" ry="3.9"/>
	<line class="st1" x1="19.4" y1="17.7" x2="19.4" y2="23.9"/>
	<rect x="12" y="52.6" class="st1" width="14.7" height="5.9"/>
	
		<rect x="15.8" y="25.5" transform="matrix(0.7071 -0.7071 0.7071 0.7071 -14.8834 22.2962)" class="st2" width="7.3" height="7.3"/>
	<rect x="13" y="40.3" class="st1" width="13" height="6.3"/>
	<line class="st1" x1="19.4" y1="34.3" x2="19.4" y2="40.3"/>
	<line class="st1" x1="19.4" y1="46.6" x2="19.4" y2="52.6"/>
	<polyline class="st1" points="24.6,29.1 31.9,29.1 31.9,55.5 26.8,55.5 	"/>
</g>
</svg>
