<?xml version="1.0" encoding="utf-8"?>
<!-- Generator: Adobe Illustrator 24.3.0, SVG Export Plug-In . SVG Version: 6.00 Build 0)  -->
<svg version="1.1" id="Layer_1" xmlns="http://www.w3.org/2000/svg" xmlns:xlink="http://www.w3.org/1999/xlink" x="0px" y="0px"
	 viewBox="0 0 110 70" style="enable-background:new 0 0 110 70;" xml:space="preserve">
<style type="text/css">
	.st0{fill:none;stroke:#212A32;stroke-miterlimit:10;}
	.st1{fill:none;stroke:#FF7300;stroke-miterlimit:10;}
	.st2{fill:#FFFFFF;stroke:#FF7300;stroke-miterlimit:10;}
</style>
<g>
	<circle class="st0" cx="12.9" cy="30.6" r="9"/>
	<circle class="st0" cx="97.1" cy="30.6" r="9"/>
	<line class="st0" x1="30.9" y1="30.6" x2="21.9" y2="30.6"/>
	<line class="st0" x1="88.1" y1="30.6" x2="79.4" y2="30.6"/>
	<circle class="st1" cx="55.2" cy="30.4" r="22.8"/>
	<circle class="st0" cx="55.2" cy="30.4" r="15.8"/>
	<g>
		<path class="st2" d="M57.5,41.6h-2.1c-1.4,1.5-4.1,2.5-7.2,2.6c0,1.9,0,4.6,0,7.8c0,7.1,8.2,10.4,8.2,10.4S64.6,59,64.6,52
			c0-2.4,0-5.6,0-7.8C61.5,44.1,58.9,43.1,57.5,41.6z"/>
		<polyline class="st2" points="52.4,51.8 55.2,55.8 61,48.6 		"/>
	</g>
</g>
</svg>
