<?xml version="1.0" encoding="utf-8"?>
<!-- Generator: Adobe Illustrator 24.3.0, SVG Export Plug-In . SVG Version: 6.00 Build 0)  -->
<svg version="1.1" id="Layer_1" xmlns="http://www.w3.org/2000/svg" xmlns:xlink="http://www.w3.org/1999/xlink" x="0px" y="0px"
	 viewBox="0 0 110 70" style="enable-background:new 0 0 110 70;" xml:space="preserve">
<style type="text/css">
	.st0{fill:#FFFFFF;stroke:#212A32;stroke-miterlimit:10;}
	.st1{fill:none;stroke:#FF7300;stroke-miterlimit:10;}
</style>
<g>
	<g>
		<path class="st0" d="M76.3,60.5H40.9c-1.4,0-2.4-1.1-2.4-2.4V38.4c0-1.4,1.1-2.4,2.4-2.4h35.4c1.4,0,2.4,1.1,2.4,2.4v19.7
			C78.7,59.4,77.7,60.5,76.3,60.5z"/>
		<path class="st0" d="M51.3,40.3c-4.3,0-7.8,3.4-7.9,7.7c-0.2,4.6,3.5,8.3,8.1,8.2c3.4-0.1,6.3-2.3,7.3-5.3c0-0.1,0.1-0.1,0.1-0.1
			h2.2c0,0,0,0,0.1,0l1.8-1c0,0,0,0,0.1,0h7.4c0,0,0,0,0.1,0l3.3-1.7c0.1,0,0.1-0.1,0-0.2l-2.1-1.9c0,0-0.1,0-0.1,0l-12.5,0
			c-0.1,0-0.1,0-0.1-0.1C57.9,42.6,54.9,40.3,51.3,40.3z"/>
	</g>
	<circle class="st1" cx="30" cy="34.8" r="25.3"/>
	<g>
		<path class="st0" d="M81.4,35.8H46c-1.4,0-2.4-1.1-2.4-2.4V13.6c0-1.4,1.1-2.4,2.4-2.4h35.4c1.4,0,2.4,1.1,2.4,2.4v19.7
			C83.8,34.7,82.7,35.8,81.4,35.8z"/>
		<path class="st0" d="M56.4,15.5c-4.3,0-7.8,3.4-7.9,7.7c-0.2,4.6,3.5,8.3,8.1,8.2c3.4-0.1,6.3-2.3,7.3-5.3C63.9,26,64,26,64,26
			h2.2c0,0,0,0,0.1,0l1.8-1c0,0,0,0,0.1,0h7.4c0,0,0,0,0.1,0l3.3-1.7c0.1,0,0.1-0.1,0-0.2l-2.1-1.9c0,0-0.1,0-0.1,0H64.1
			c-0.1,0-0.1,0-0.1-0.1C62.9,17.8,59.9,15.5,56.4,15.5z"/>
	</g>
	<g>
		<path class="st0" d="M58.4,48.1h-38c-1.4,0-2.6-1.2-2.6-2.6V24.3c0-1.4,1.2-2.6,2.6-2.6h38c1.4,0,2.6,1.2,2.6,2.6v21.2
			C61,46.9,59.9,48.1,58.4,48.1z"/>
		<path class="st0" d="M31.6,26.4c-4.6,0-8.4,3.7-8.5,8.2c-0.2,4.9,3.8,8.9,8.7,8.8c3.6-0.1,6.7-2.4,7.9-5.7c0-0.1,0.1-0.1,0.1-0.1
			h2.3c0,0,0,0,0.1,0l1.9-1c0,0,0,0,0.1,0h7.9c0,0,0,0,0.1,0l3.5-1.8c0.1,0,0.1-0.2,0-0.2l-2.3-2.1c0,0-0.1,0-0.1,0H39.9
			c-0.1,0-0.1,0-0.1-0.1C38.6,28.8,35.4,26.4,31.6,26.4z"/>
	</g>
</g>
</svg>
