<?xml version="1.0" encoding="utf-8"?>
<!-- Generator: Adobe Illustrator 24.3.0, SVG Export Plug-In . SVG Version: 6.00 Build 0)  -->
<svg version="1.1" id="Layer_1" xmlns="http://www.w3.org/2000/svg" xmlns:xlink="http://www.w3.org/1999/xlink" x="0px" y="0px"
	 viewBox="0 0 110 70" style="enable-background:new 0 0 110 70;" xml:space="preserve">
<style type="text/css">
	.st0{fill:none;stroke:#212A32;stroke-miterlimit:10;}
	.st1{fill:none;stroke:#FF7300;stroke-miterlimit:10;}
	.st2{fill:#212A32;}
	.st3{fill:#FFFFFF;stroke:#212A32;stroke-miterlimit:10;}
</style>
<g>
	<g>
		<path class="st0" d="M49.7,54H7.6c-1.6,0-2.9-1.3-2.9-2.9V18.9C4.7,17.3,6,16,7.6,16h42.2c1.6,0,2.9,1.3,2.9,2.9v32.2
			C52.7,52.7,51.4,54,49.7,54z"/>
		<line class="st0" x1="4.7" y1="25.7" x2="52.7" y2="25.7"/>
		<g>
			<circle class="st1" cx="10.8" cy="20.8" r="1.9"/>
			<circle class="st1" cx="17.3" cy="20.8" r="1.9"/>
			<circle class="st1" cx="23.8" cy="20.8" r="1.9"/>
		</g>
		<rect x="19.9" y="30" class="st1" width="28.6" height="19"/>
		<rect x="9.3" y="30" class="st1" width="7.5" height="5"/>
		<rect x="9.3" y="37.1" class="st1" width="7.5" height="5"/>
		<rect x="9.3" y="44.1" class="st1" width="7.5" height="5"/>
	</g>
	<g>
		<g>
			<path class="st2" d="M82.6,32.4l5.1,1.9v2.1l-7.3-3.2v-1.7l7.3-3.2v2.1L82.6,32.4z"/>
			<path class="st2" d="M91,38.9h-1.7l5-13.8H96L91,38.9z"/>
			<path class="st2" d="M103.2,32.3l-5.4-2v-2.1l7.5,3.2v1.7l-7.5,3.2v-2.1L103.2,32.3z"/>
		</g>
		<g>
			<g>
				<circle class="st3" cx="54.9" cy="23.9" r="6.1"/>
				<path class="st3" d="M53.7,18c0,0,0.2,2.3,1.2,3.5c2.2,2.8,6.1,2.5,6.1,2.5"/>
				<path class="st3" d="M53.8,20.6c0,0-0.4,1-2.2,2.1c-1.4,0.9-2.8,0.3-2.8,0.3"/>
				<path class="st3" d="M45,41.5c0,1.6,4.4,2.9,9.9,2.9c2.7,0,5.2-0.3,7-0.9l2.6-5.2c-0.8-4.9-3.5-7.6-9.6-7.6
					c-7.1,0-9.6,3.8-9.9,10.6C45,41.4,45,41.5,45,41.5"/>
			</g>
			<g>
				<circle class="st3" cx="70" cy="26.7" r="7.6"/>
				<path class="st3" d="M68.7,19.3c0,0,0.3,2.8,1.4,4.3c2.8,3.5,7.5,3.1,7.5,3.1"/>
				<path class="st3" d="M68.7,22.6c0,0-0.5,1.2-2.7,2.6c-1.8,1.1-3.5,0.3-3.5,0.3"/>
				<path class="st3" d="M57.7,48.5c0,2,5.5,3.7,12.3,3.7s12.3-1.6,12.3-3.7c0-0.1,0-0.1,0-0.2"/>
				<path class="st3" d="M82.3,48.3C82,39.9,79,35.2,70,35.2c-8.9,0-12,4.8-12.3,13.2c0,0.1,0,0.1,0,0.2"/>
			</g>
		</g>
	</g>
</g>
</svg>
