<?xml version="1.0" encoding="utf-8"?>
<!-- Generator: Adobe Illustrator 24.3.0, SVG Export Plug-In . SVG Version: 6.00 Build 0)  -->
<svg version="1.1" id="Layer_1" xmlns="http://www.w3.org/2000/svg" xmlns:xlink="http://www.w3.org/1999/xlink" x="0px" y="0px"
	 viewBox="0 0 110 70" style="enable-background:new 0 0 110 70;" xml:space="preserve">
<style type="text/css">
	.st0{fill:none;stroke:#FF7300;stroke-miterlimit:10;}
	.st1{fill:none;stroke:#212A32;stroke-miterlimit:10;}
</style>
<g>
	<line class="st0" x1="64.5" y1="35" x2="75.5" y2="35"/>
	<circle class="st1" cx="12.9" cy="35" r="9"/>
	<line class="st1" x1="33" y1="35" x2="21.9" y2="35"/>
	<g>
		<path class="st1" d="M100.1,24.1c0-1.9-5.5-3.5-12.3-3.5c-6.8,0-12.3,1.6-12.3,3.5c0,0,0,0,0,0h0v21.7c0,1.9,5.5,3.5,12.3,3.5
			c6.8,0,12.3-1.6,12.3-3.5V24.1L100.1,24.1C100.1,24.1,100.1,24.1,100.1,24.1z"/>
		<path class="st1" d="M75.5,31.6c0,1.9,5.5,3.5,12.3,3.5s12.3-1.6,12.3-3.5"/>
		<path class="st1" d="M100.1,38.9c0,1.9-5.5,3.5-12.3,3.5s-12.3-1.6-12.3-3.5"/>
		<ellipse class="st1" cx="87.8" cy="24.1" rx="12.3" ry="3.5"/>
	</g>
	<circle class="st1" cx="48.7" cy="35" r="15.8"/>
</g>
</svg>
