<?xml version="1.0" encoding="utf-8"?>
<!-- Generator: Adobe Illustrator 24.3.0, SVG Export Plug-In . SVG Version: 6.00 Build 0)  -->
<svg version="1.1" id="Layer_1" xmlns="http://www.w3.org/2000/svg" xmlns:xlink="http://www.w3.org/1999/xlink" x="0px" y="0px"
	 viewBox="0 0 110 70" style="enable-background:new 0 0 110 70;" xml:space="preserve">
<style type="text/css">
	.st0{fill-rule:evenodd;clip-rule:evenodd;fill:none;stroke:#212A32;stroke-miterlimit:10;}
	.st1{fill-rule:evenodd;clip-rule:evenodd;fill:none;stroke:#212A32;stroke-linecap:round;stroke-miterlimit:10;}
	.st2{fill:#FFFFFF;stroke:#212A32;stroke-miterlimit:10;}
	.st3{fill-rule:evenodd;clip-rule:evenodd;fill:none;stroke:#FF7300;stroke-miterlimit:10;}
</style>
<g>
	<g>
		<circle class="st0" cx="69.6" cy="22.1" r="2.8"/>
		<circle class="st0" cx="77.8" cy="36.4" r="2.8"/>
		<circle class="st0" cx="61.3" cy="36.4" r="2.8"/>
		<path class="st1" d="M76.2,26.2c0.7-1.2,1.2-2.6,1.2-4.1c0-4.3-3.5-7.8-7.8-7.8s-7.8,3.5-7.8,7.8c0,2.9,1.6,5.4,3.9,6.8L62.7,34"
			/>
		<path class="st1" d="M71.1,40.4c1.4,2.3,3.9,3.8,6.7,3.8c4.3,0,7.8-3.5,7.8-7.8s-3.5-7.8-7.8-7.8c-1.4,0-2.8,0.4-3.9,1.1L71,24.5"
			/>
		<path class="st1" d="M61.3,28.6c-4.3,0-7.8,3.5-7.8,7.8s3.5,7.8,7.8,7.8s7.8-3.5,7.8-7.8l0,0H75"/>
	</g>
	<g>
		<path class="st2" d="M32.5,19.2c-4.2,6.9-1.1,17.6-4.9,21.5c-2.1,2.2-3.8,3.2-4.8,3.6c-0.8,0.3-1.3,1.1-1.3,1.9l0,1.2
			c0,0.9,0.7,1.6,1.6,1.6h36.7c0.9,0,1.6-0.7,1.6-1.6l0-1.2c0-0.9-0.5-1.6-1.3-1.9c-1-0.4-2.2-0.1-4.8-2.9c-4-4.4-0.7-15.4-4.9-22.2
			c-3-4.8-9-4.2-9-4.2S35.4,14.4,32.5,19.2z"/>
		<path class="st2" d="M47.6,49.5c0,3.5-2.8,6.2-6.2,6.2c-3.5,0-6.2-2.8-6.2-6.2"/>
	</g>
	<g>
		<path class="st3" d="M13.8,49.1c-5.4-3.9-8.9-10.2-8.9-17.2c0-6.8,3.2-12.9,8.2-16.8"/>
		<path class="st3" d="M18.3,43.5c-3.8-2.5-6.2-6.8-6.2-11.7c0-4.5,2.2-8.6,5.5-11.2"/>
		<path class="st3" d="M21.5,38.8c-2.2-1.5-3.7-4.1-3.7-7c0-2.7,1.3-5.1,3.3-6.7"/>
	</g>
</g>
</svg>
