<?xml version="1.0" encoding="utf-8"?>
<!-- Generator: Adobe Illustrator 24.3.0, SVG Export Plug-In . SVG Version: 6.00 Build 0)  -->
<svg version="1.1" id="Layer_1" xmlns="http://www.w3.org/2000/svg" xmlns:xlink="http://www.w3.org/1999/xlink" x="0px" y="0px"
	 viewBox="0 0 110 70" style="enable-background:new 0 0 110 70;" xml:space="preserve">
<style type="text/css">
	.st0{fill:none;stroke:#FF7300;stroke-linejoin:round;stroke-miterlimit:10;}
	.st1{fill:none;}
	.st2{fill:none;stroke:#465867;stroke-miterlimit:10;}
	.st3{fill:#465867;}
</style>
<g>
	<polygon class="st0" points="53.6,25.5 8.3,25.5 25.8,40 25.8,52.2 36.1,51.3 36.1,40 	"/>
	<g>
		<line class="st1" x1="11.7" y1="8.4" x2="11.7" y2="22.4"/>
		<g>
			<line class="st2" x1="11.7" y1="8.4" x2="11.7" y2="21"/>
			<g>
				<polygon class="st3" points="6.5,16.8 7.4,16 11.7,20.6 16,16 16.9,16.8 11.7,22.4 				"/>
			</g>
		</g>
	</g>
	<g>
		<line class="st1" x1="30.9" y1="8.4" x2="30.9" y2="22.4"/>
		<g>
			<line class="st2" x1="30.9" y1="8.4" x2="30.9" y2="21"/>
			<g>
				<polygon class="st3" points="25.7,16.8 26.7,16 30.9,20.6 35.1,16 36.1,16.8 30.9,22.4 				"/>
			</g>
		</g>
	</g>
	<g>
		<line class="st1" x1="50.1" y1="8.4" x2="50.1" y2="22.4"/>
		<g>
			<line class="st2" x1="50.1" y1="8.4" x2="50.1" y2="21"/>
			<g>
				<polygon class="st3" points="44.9,16.8 45.9,16 50.1,20.6 54.4,16 55.3,16.8 50.1,22.4 				"/>
			</g>
		</g>
	</g>
	<g>
		<line class="st1" x1="30.9" y1="39.8" x2="30.9" y2="61.6"/>
		<g>
			<line class="st2" x1="30.9" y1="39.8" x2="30.9" y2="60.2"/>
			<g>
				<polygon class="st3" points="25.8,56 26.7,55.1 30.9,59.7 35.2,55.1 36.1,56 30.9,61.6 				"/>
			</g>
		</g>
	</g>
</g>
</svg>
