<?xml version="1.0" encoding="utf-8"?>
<!-- Generator: Adobe Illustrator 24.3.0, SVG Export Plug-In . SVG Version: 6.00 Build 0)  -->
<svg version="1.1" id="Layer_1" xmlns="http://www.w3.org/2000/svg" xmlns:xlink="http://www.w3.org/1999/xlink" x="0px" y="0px"
	 viewBox="0 0 110 70" style="enable-background:new 0 0 110 70;" xml:space="preserve">
<style type="text/css">
	.st0{fill:none;stroke:#FF7300;stroke-miterlimit:10;}
	.st1{fill:#FF7300;}
	.st2{fill:#FFFFFF;stroke:#333333;stroke-miterlimit:10;}
</style>
<g>
	<g>
		<g>
			<line class="st0" x1="61.5" y1="23" x2="45.1" y2="23"/>
			<g>
				<path class="st1" d="M54.6,18.2c-0.1,0.2-0.1,0.5,0.2,0.7l6.5,4.1l-6.5,4.1c-0.2,0.1-0.3,0.5-0.2,0.7c0.1,0.2,0.5,0.3,0.7,0.2
					l7.1-4.5c0.1-0.1,0.2-0.3,0.2-0.4s-0.1-0.3-0.2-0.4L55.3,18C55.2,18,55.2,18,55.1,18C54.9,18,54.7,18.1,54.6,18.2z"/>
			</g>
		</g>
	</g>
	<g>
		<g>
			<line class="st0" x1="61.5" y1="35" x2="45.1" y2="35"/>
			<g>
				<path class="st1" d="M54.6,30.2c-0.1,0.2-0.1,0.5,0.2,0.7l6.5,4.1l-6.5,4.1c-0.2,0.1-0.3,0.5-0.2,0.7c0.1,0.2,0.5,0.3,0.7,0.2
					l7.1-4.5c0.1-0.1,0.2-0.3,0.2-0.4s-0.1-0.3-0.2-0.4L55.3,30C55.2,30,55.2,30,55.1,30C54.9,30,54.7,30.1,54.6,30.2z"/>
			</g>
		</g>
	</g>
	<g>
		<circle class="st2" cx="22.6" cy="35" r="18"/>
		<polyline class="st0" points="38.2,18.7 22.6,38 14,29.5 		"/>
		<line class="st2" x1="22.6" y1="48" x2="22.6" y2="53"/>
		<line class="st2" x1="22.6" y1="17" x2="22.6" y2="22"/>
		<line class="st2" x1="9.6" y1="35" x2="4.6" y2="35"/>
		<line class="st2" x1="40.6" y1="35" x2="35.6" y2="35"/>
	</g>
	<g>
		<g>
			<line class="st0" x1="61.5" y1="47.5" x2="45.1" y2="47.5"/>
			<g>
				<path class="st1" d="M54.6,42.7c-0.1,0.2-0.1,0.5,0.2,0.7l6.5,4.1l-6.5,4.1c-0.2,0.1-0.3,0.5-0.2,0.7c0.1,0.2,0.5,0.3,0.7,0.2
					l7.1-4.5c0.1-0.1,0.2-0.3,0.2-0.4s-0.1-0.3-0.2-0.4l-7.1-4.5c-0.1-0.1-0.2-0.1-0.3-0.1C54.9,42.5,54.7,42.6,54.6,42.7z"/>
			</g>
		</g>
	</g>
</g>
</svg>
