<?xml version="1.0" encoding="utf-8"?>
<!-- Generator: Adobe Illustrator 24.3.0, SVG Export Plug-In . SVG Version: 6.00 Build 0)  -->
<svg version="1.1" id="Layer_1" xmlns="http://www.w3.org/2000/svg" xmlns:xlink="http://www.w3.org/1999/xlink" x="0px" y="0px"
	 viewBox="0 0 110 70" style="enable-background:new 0 0 110 70;" xml:space="preserve">
<style type="text/css">
	.st0{fill:#FF7300;}
	.st1{fill:none;stroke:#212A32;stroke-miterlimit:10;}
</style>
<g>
	<g>
		<path class="st0" d="M41.9,34.5l6.6,2.7v2.1l-8.6-4v-1.5l8.6-4v2.1L41.9,34.5z"/>
		<path class="st0" d="M52.3,42.6h-1.7L57,26h1.7L52.3,42.6z"/>
		<path class="st0" d="M68.1,34.5l-6.9-2.7v-2l9,4v1.5l-9,4v-2L68.1,34.5z"/>
	</g>
	<circle class="st1" cx="12.9" cy="35" r="9"/>
	<circle class="st1" cx="97.1" cy="35" r="9"/>
	<line class="st1" x1="30.9" y1="35" x2="21.9" y2="35"/>
	<path class="st1" d="M74.9,54.8H35.1c-2.3,0-4.2-1.9-4.2-4.2V19.4c0-2.3,1.9-4.2,4.2-4.2h39.7c2.3,0,4.2,1.9,4.2,4.2v31.1
		C79.1,52.9,77.2,54.8,74.9,54.8z"/>
	<line class="st1" x1="88.1" y1="35" x2="79.4" y2="35"/>
</g>
</svg>
