<?xml version="1.0" encoding="utf-8"?>
<!-- Generator: Adobe Illustrator 24.1.1, SVG Export Plug-In . SVG Version: 6.00 Build 0)  -->
<svg version="1.1" id="Layer_1" xmlns="http://www.w3.org/2000/svg" xmlns:xlink="http://www.w3.org/1999/xlink" x="0px" y="0px"
	 viewBox="0 0 512 512" style="enable-background:new 0 0 512 512;" xml:space="preserve">
<g id="XMLID_6_">
	<path id="XMLID_11_" class="st0" d="M49.1,255.6c0-43.8,35.9-78.9,78.9-78.9h102.6v-48.2H128c-71,0-128,57-128,128
		c0,70.1,57,128,128,128h102.6v-50H128C84.2,334.5,49.1,299.4,49.1,255.6z M153.4,281h204.3v-50.8H153.4V281z M384,127.6H281.4v49.1
		H384c43.8,0,78.9,35.9,78.9,78.9S427,334.5,384,334.5H281.4v48.2H384c70.1,0,128-57,128-128C512,184.5,454.1,127.6,384,127.6z"/>
</g>
</svg>
